<svg width="30" height="29" viewBox="0 0 30 29" fill="none" xmlns="http://www.w3.org/2000/svg">
<path d="M1.21429 5.78595L14.7857 19.3574" stroke="#181818" stroke-width="1.6"/>
<path d="M29.4286 5.78595L15.8572 19.3574" stroke="#181818" stroke-width="1.6"/>
<path d="M28.9857 19.7145V24.0002C28.9857 24.3474 28.7043 24.6288 28.3572 24.6288H2.64287C2.29572 24.6288 2.01429 24.3474 2.01429 24.0002V19.7145C2.01429 19.3674 2.29572 19.0859 2.64287 19.0859H28.3572C28.7043 19.0859 28.9857 19.3674 28.9857 19.7145Z" fill="white" stroke="#181818" stroke-width="1.6"/>
<path d="M4.78583 25.4287V28.2859M26.2144 26.6532V25.4287V28.2859" stroke="#181818" stroke-width="1.6"/>
<mask id="mask0_3401_4523" style="mask-type:alpha" maskUnits="userSpaceOnUse" x="3" y="0" width="25" height="15">
<path d="M3.65302 2.86737L14.4899 13.7042C15.0477 14.2621 15.9523 14.2621 16.5102 13.7042L27.347 2.86737C28.247 1.96742 27.6096 0.42865 26.3368 0.42865H4.66317C3.39045 0.42865 2.75307 1.96742 3.65302 2.86737Z" fill="#D9D9D9"/>
</mask>
<g mask="url(#mask0_3401_4523)">
<circle cx="15.5" cy="14.7144" r="13.4857" stroke="#181818" stroke-width="1.6"/>
<circle cx="15.5001" cy="14.7144" r="9.91428" stroke="#181818" stroke-width="1.6"/>
<circle cx="15.5" cy="14.7145" r="6.34286" stroke="#181818" stroke-width="1.6"/>
<circle cx="15.5001" cy="14.7143" r="2.77143" stroke="#181818" stroke-width="1.6"/>
</g>
</svg>
