<svg width="25" height="18" viewBox="0 0 25 18" fill="none" xmlns="http://www.w3.org/2000/svg">
<path d="M24.2 1.42857V9.91429H0.8V1.42857C0.8 1.08142 1.08142 0.8 1.42857 0.8H23.5714C23.9186 0.8 24.2 1.08142 24.2 1.42857Z" fill="white" stroke="#181818" stroke-width="1.6"/>
<path d="M24.2 10.7142V13.5713C24.2 13.9184 23.9186 14.1999 23.5714 14.1999H1.42858C1.08143 14.1999 0.800011 13.9184 0.800011 13.5713V10.7142C0.800011 10.367 1.08143 10.0856 1.42858 10.0856H23.5714C23.9186 10.0856 24.2 10.367 24.2 10.7142Z" fill="white" stroke="#181818" stroke-width="1.6"/>
<path d="M5.00001 14.2856V17.1427M20 15.5101V14.2856V17.1427" stroke="#181818" stroke-width="1.6"/>
<path d="M5.00001 9.99989V0.714172" stroke="#181818" stroke-width="1.6"/>
<path d="M10 9.99989V0.714172" stroke="#181818" stroke-width="1.6"/>
<path d="M15 9.99989V0.714172" stroke="#181818" stroke-width="1.6"/>
<path d="M20 9.99989V0.714172" stroke="#181818" stroke-width="1.6"/>
</svg>
