<svg width="29" height="20" viewBox="0 0 29 20" fill="none" xmlns="http://www.w3.org/2000/svg">
<path d="M25.6286 1.42857V9.28572C25.6286 9.63286 25.3471 9.91428 25 9.91428H3.57142C3.22427 9.91428 2.94285 9.63286 2.94285 9.28571V1.42857C2.94285 1.08142 3.22427 0.8 3.57142 0.8H25C25.3471 0.8 25.6286 1.08142 25.6286 1.42857Z" fill="white" stroke="#181818" stroke-width="1.6"/>
<path d="M12.7714 5.71428V8.57142C12.7714 8.91857 12.49 9.19999 12.1428 9.19999H6.42856C6.08141 9.19999 5.79999 8.91857 5.79999 8.57142V5.71428C5.79999 5.36713 6.08141 5.08571 6.42856 5.08571H12.1429C12.49 5.08571 12.7714 5.36713 12.7714 5.71428Z" fill="white" stroke="#181818" stroke-width="1.6"/>
<path d="M22.7714 5.71428V8.57142C22.7714 8.91857 22.49 9.19999 22.1428 9.19999H16.4286C16.0814 9.19999 15.8 8.91857 15.8 8.57142V5.71428C15.8 5.36713 16.0814 5.08571 16.4286 5.08571H22.1429C22.49 5.08571 22.7714 5.36713 22.7714 5.71428Z" fill="white" stroke="#181818" stroke-width="1.6"/>
<path d="M27.7714 9.99998V15.7143C27.7714 16.0614 27.49 16.3428 27.1429 16.3428H1.42856C1.08141 16.3428 0.799992 16.0614 0.799992 15.7143V9.99998C0.799992 9.65283 1.08141 9.37141 1.42856 9.37141H27.1428C27.49 9.37141 27.7714 9.65283 27.7714 9.99998Z" fill="white" stroke="#181818" stroke-width="1.6"/>
<path d="M3.57142 17.1428V19.9999M25 18.3673V17.1428V19.9999" stroke="#181818" stroke-width="1.6"/>
</svg>
