<svg width="30" height="30" viewBox="0 0 30 30" fill="none" xmlns="http://www.w3.org/2000/svg">
<path d="M15 6.65104L1.52964 26.3361C0.880857 27.2842 1.55977 28.5714 2.70861 28.5714H27.2914C28.4403 28.5714 29.1192 27.2842 28.4704 26.3361L15 6.65104Z" fill="white"/>
<path fill-rule="evenodd" clip-rule="evenodd" d="M14.0306 6.65105L0.869402 25.8843C-0.142705 27.3633 0.916395 29.3714 2.70859 29.3714H27.2914C29.0836 29.3714 30.1427 27.3633 29.1306 25.8843L15.9694 6.65105L19.7227 1.16605L18.4023 0.262482L15 5.23445L11.5977 0.262512L10.2773 1.16608L14.0306 6.65105ZM15 8.06765L2.18984 26.7879C1.90438 27.205 2.2031 27.7714 2.70859 27.7714H27.2914C27.7969 27.7714 28.0956 27.205 27.8102 26.7879L15 8.06765Z" fill="#181818"/>
<path fill-rule="evenodd" clip-rule="evenodd" d="M15.518 19.3083C15.2682 18.9451 14.7318 18.9451 14.4821 19.3083L7.80211 29.0246L6.48364 28.1182L13.1636 18.4019C14.0491 17.1139 15.9509 17.1139 16.8365 18.4019L23.5164 28.1182L22.1979 29.0246L15.518 19.3083Z" fill="#181818"/>
<path fill-rule="evenodd" clip-rule="evenodd" d="M15.8 18.5715L15.8 28.5715L14.2 28.5715L14.2 18.5715L15.8 18.5715Z" fill="#181818"/>
</svg>
