<?xml version="1.0" encoding="UTF-8"?>
<svg id="_Слой_1" data-name="Слой 1" xmlns="http://www.w3.org/2000/svg" viewBox="0 0 20 22">
  <defs>
    <style>
      .cls-1 {
        fill: #181818;
        stroke-width: 0px;
      }
    </style>
  </defs>
  <path class="cls-1" d="m17,22H3c-1.65,0-3-1.35-3-3V5c0-1.65,1.35-3,3-3h2v-1c0-.55.45-1,1-1s1,.45,1,1v1h6v-1c0-.55.45-1,1-1s1,.45,1,1v1h2c1.65,0,3,1.35,3,3v14c0,1.65-1.35,3-3,3ZM2,10v9c0,.55.45,1,1,1h14c.55,0,1-.45,1-1v-9H2Zm0-2h16v-3c0-.55-.45-1-1-1h-2v1c0,.55-.45,1-1,1s-1-.45-1-1v-1h-6v1c0,.55-.45,1-1,1s-1-.45-1-1v-1h-2c-.55,0-1,.45-1,1v3Z"/>
</svg>